# xmcd CD database file
# Copyright (C) 1993-1996 Ti Kan
#
# Track frame offsets:
#	150
#	18163
#	41080
#	63020
#	81258
#	103055
#	123423
#	140178
#	163373
#	182375
#	208525
#	228353
#	252653
#	278128
#
# Disc length: 4214 seconds
#
# Revision: 1
# Processed by: cddbd v1.4b41PL1 Copyright (c) Steve Scherf et al.
# Submitted via: CDValet v3.31 - Copyright (c) 1997 Greg Leichner
#
DISCID=c710740e
DTITLE=Jomanda - Someone To Love Me
DYEAR=1900
DGENRE=
TTITLE0=Make My Body Rock 1990
TTITLE1=Someone To Love Me
TTITLE2=Share
TTITLE3=Don't You Want My Love
TTITLE4=What's The Deal?
TTITLE5=You Knew, Boy
TTITLE6=Dance
TTITLE7=Got A Love For You
TTITLE8=It Ain't No Big Thing
TTITLE9=When Love Hurts
TTITLE10=The True Meaning (Of Love)
TTITLE11=I Will Always Be There For You
TTITLE12=Without You
TTITLE13=Make My Body Rock (Basic Mix)
EXTD=
EXTT0=
EXTT1=
EXTT2=
EXTT3=
EXTT4=
EXTT5=
EXTT6=
EXTT7=
EXTT8=
EXTT9=
EXTT10=
EXTT11=
EXTT12=
EXTT13=
PLAYORDER=
